<?xml version="1.0" encoding="UTF-8" standalone="no"?>
<!-- Created with Inkscape (http://www.inkscape.org/) -->

<svg
   width="210mm"
   height="297mm"
   viewBox="0 0 210 297"
   version="1.1"
   id="svg1"
   xml:space="preserve"
   inkscape:version="1.3 (0e150ed6c4, 2023-07-21)"
   sodipodi:docname="desenho-pi.svg"
   inkscape:export-filename="g10-3.svg"
   inkscape:export-xdpi="193.5238"
   inkscape:export-ydpi="193.5238"
   xmlns:inkscape="http://www.inkscape.org/namespaces/inkscape"
   xmlns:sodipodi="http://sodipodi.sourceforge.net/DTD/sodipodi-0.dtd"
   xmlns="http://www.w3.org/2000/svg"
   xmlns:svg="http://www.w3.org/2000/svg"><sodipodi:namedview
     id="namedview1"
     pagecolor="#ffffff"
     bordercolor="#eeeeee"
     borderopacity="1"
     inkscape:showpageshadow="0"
     inkscape:pageopacity="0"
     inkscape:pagecheckerboard="0"
     inkscape:deskcolor="#505050"
     inkscape:document-units="mm"
     inkscape:export-bgcolor="#ffffff00"
     inkscape:zoom="0.52347032"
     inkscape:cx="-107.93353"
     inkscape:cy="617.99111"
     inkscape:window-width="1920"
     inkscape:window-height="1027"
     inkscape:window-x="-8"
     inkscape:window-y="-8"
     inkscape:window-maximized="1"
     inkscape:current-layer="layer1"
     showgrid="true"><inkscape:grid
       id="grid11"
       units="px"
       originx="0"
       originy="0"
       spacingx="0.26458333"
       spacingy="0.26458334"
       empcolor="#9f9f9f"
       empopacity="0.25098039"
       color="#94071e"
       opacity="0.1254902"
       empspacing="24"
       dotted="false"
       gridanglex="30"
       gridanglez="30"
       visible="true"
       enabled="true"
       snapvisiblegridlinesonly="true" /></sodipodi:namedview><defs
     id="defs1" /><g
     inkscape:label="Camada 1"
     inkscape:groupmode="layer"
     id="layer1"><ellipse
       style="opacity:1;fill:none;fill-opacity:0.184783;fill-rule:nonzero;stroke:#000000;stroke-width:0.485;stroke-linecap:round;stroke-linejoin:bevel;stroke-miterlimit:4;stroke-dasharray:1.94, 1.94;stroke-dashoffset:0;stroke-opacity:1"
       id="path11"
       cx="-4.2962408"
       cy="36.644535"
       rx="68.948494"
       ry="57.828751" /><path
       style="fill:none;stroke:#000000;stroke-width:0.485;stroke-linecap:butt;stroke-linejoin:miter;stroke-dasharray:1.94, 1.94;stroke-dashoffset:0;stroke-opacity:1"
       d="M 77.332465,335.10733 C 202.68182,296.18839 148.0942,272.43266 148.0942,272.43266 c 0,0 -42.69607,-16.84842 8.16627,-30.47695 50.86234,-13.62852 80.28589,31.99328 80.28589,31.99328 0,0 18.70131,23.75572 23.75572,43.46793 5.05441,19.71219 25.27205,37.90807 25.27205,37.90807"
       id="path12" /><path
       style="fill:none;stroke:#000000;stroke-width:0.485;stroke-linecap:butt;stroke-linejoin:miter;stroke-dasharray:1.94, 1.94;stroke-dashoffset:0;stroke-opacity:1"
       d="M -28.304693,189.28763 C 53.071299,156.68669 59.136591,171.09176 59.136591,171.09176"
       id="path13" /><g
       id="Layer_1"
       transform="matrix(-0.01734725,-0.05960393,0.05960393,-0.01734725,44.225508,244.92615)">&#10;			&#10;		<path
   id="path3241"
   sodipodi:nodetypes="cccczzczzcczccszsczcsz"
   style="fill:#790ea6;fill-opacity:1;fill-rule:evenodd;stroke-width:4.26218"
   d="m 1092.7347,707.71267 c 13.3511,-8.86592 14.1044,-22.62111 8.3977,-35.64543 -12.4809,-25.1171 -34.8057,-52.51154 -47.762,-76.58407 27.2484,-20.11287 41.5404,-30.85499 63.9466,-47.78049 19.6162,28.56509 25.7345,33.32244 34.6476,27.93572 8.8075,-5.31476 5.414,-13.41807 0.8346,-20.61241 -4.5442,-7.21836 -9.9086,-14.96138 -14.9897,-22.74244 0,0 4.2064,-2.90973 4.107,-4.80038 -0.063,-1.76087 -1.7424,-4.53596 -3.3705,-5.49086 -1.4504,-0.92112 -6.6267,1.92634 -6.6267,1.92634 0,0 -9.8566,-14.4299 -14.4839,-21.69478 -5.0825,-7.93464 -10.5826,-14.96721 -20.985,-8.20796 -10.3784,6.79456 0.2276,23.08558 13.5364,42.89928 -32.1993,19.04543 -34.1183,19.93713 -68.5699,40.97664 -17.4208,-20.93593 -32.0074,-47.55937 -48.36791,-64.88721 -13.1023,-13.82188 -26.2357,-19.12021 -39.1681,-9.71416 -12.9439,9.46524 -12.5302,20.16016 -1.0193,37.17614 20.3742,30.05974 40.7153,65.75867 40.7153,65.75867 -12.8873,9.16921 -33.3057,18.25131 -24.5609,31.27237 8.78,12.99712 25.3658,-1.72544 38.87321,-10.28544 10.9233,16.07551 37.6968,49.25869 53.3293,72.49193 7.2836,10.87068 17.965,16.95902 31.5162,8.00854 z" /></g></g></svg>
