
<svg
   width="524.72742mm"
   height="521.1922mm"
   viewBox="0 0 524.72742 521.1922"
   version="1.1"
   id="svg1"
   xml:space="preserve"
   inkscape:version="1.3 (0e150ed6c4, 2023-07-21)"
   sodipodi:docname="desenho-pi.svg"
   inkscape:export-filename="g10-3.svg"
   inkscape:export-xdpi="193.5238"
   inkscape:export-ydpi="193.5238"
   xmlns:inkscape="http://www.inkscape.org/namespaces/inkscape"
   xmlns:sodipodi="http://sodipodi.sourceforge.net/DTD/sodipodi-0.dtd"
   xmlns="http://www.w3.org/2000/svg"
   xmlns:svg="http://www.w3.org/2000/svg"><sodipodi:namedview
     id="namedview1"
     pagecolor="#ffffff"
     bordercolor="#eeeeee"
     borderopacity="1"
     inkscape:showpageshadow="0"
     inkscape:pageopacity="0"
     inkscape:pagecheckerboard="0"
     inkscape:deskcolor="#505050"
     inkscape:document-units="mm"
     inkscape:export-bgcolor="#ffffff00"
     inkscape:zoom="0.18507471"
     inkscape:cx="-5024.9978"
     inkscape:cy="-67.540293"
     inkscape:window-width="960"
     inkscape:window-height="1027"
     inkscape:window-x="952"
     inkscape:window-y="-8"
     inkscape:window-maximized="0"
     inkscape:current-layer="layer1"
     showgrid="true"><inkscape:grid
       id="grid11"
       units="px"
       originx="6145.6887"
       originy="1288.6205"
       spacingx="0.26458333"
       spacingy="0.26458334"
       empcolor="#9f9f9f"
       empopacity="0.25098039"
       color="#94071e"
       opacity="0.1254902"
       empspacing="24"
       dotted="false"
       gridanglex="30"
       gridanglez="30"
       visible="true"
       enabled="true"
       snapvisiblegridlinesonly="true" /></sodipodi:namedview><defs
     id="defs1" />
     
     <defs>
        <script href="./../JS/commons.js" />
        <script href="./../JS/mock.js" />
        <script><![CDATA[
          document.addEventListener('DOMContentLoaded', function() {
            r = document.getElementsByClassName('active')
          }, false);
        ]]></script>
        <style type="text/css"><![CDATA[
          .active {
               fill: #790EA6 !important;
          }

          .active:hover {
               fill: #8b13be !important;
          }
        ]]></style>
    </defs>
     
     <g
     inkscape:groupmode="layer"
     id="layer1"
     transform="translate(1626.0468,340.9475)">
     
       <path

       d="m -1347.9206,174.96099 3.3332,-2.54233 2.5087,-5.52777 c 1.3799,-3.04023 2.9918,-6.3881 3.5822,-7.43976 l 1.0734,-1.91198 -1.0566,-0.35217 -1.0565,-0.35218 0.3403,-1.15955 c 0.1871,-0.63774 0.6746,-2.03992 1.0833,-3.11594 0.4087,-1.07601 0.781,-2.38748 0.8275,-2.91433 0.047,-0.52689 1.4981,-1.84742 3.2259,-2.93459 l 3.1415,-1.97663 0.038,-1.63036 c 0.021,-0.89667 0.3841,-1.77709 0.8075,-1.95639 0.4235,-0.17933 1.9827,-2.41692 3.465,-4.97246 l 2.695,-4.64642 2.1597,0.015 c 1.1878,0.008 2.8163,0.4301 3.6188,0.93746 l -2.0768,2.92108 -2.4445,4.90428 -5.5961,7.21027 c -2.4417,2.21776 -6.5415,4.23001 -6.9812,7.53983 l 3.4659,-0.88062 10.8453,-11.02719 5.8235,-10.64178 c 2.2036,-4.02673 4.3831,-7.75463 4.8772,-8.26574 0.4941,-0.51111 0.8984,-1.55288 0.8984,-2.315 v -1.38571 l -1.9204,0.5022 -1.9203,0.5022 -1.0617,-1.27918 -1.0616,-1.27919 0.9244,-0.5713 c 0.5084,-0.31422 1.8433,-2.33427 2.9663,-4.48893 l 2.042,-3.91767 h -7.883 l -2.1565,-2.23058 c -1.186,-1.22685 -3.2604,-3.60406 -4.6097,-5.28284 l -2.4533,-3.052262 -6.3505,-2.88773 -6.3504,-2.88772 -4.4019,-0.75632 c -2.421,-0.41598 -5.7419,-0.7817 -7.3797,-0.81272 l -2.9778,-0.0563 -6.8041,3.28302 c -3.7423,1.80564 -7.6845,4.1224 -8.7605,5.148332 -1.076,1.02593 -3.4971,2.83676 -5.3801,4.0241 l -3.4237,2.15877 -6.2058,7.78986 c -3.4131,4.28439 -8.1707,9.98247 -10.5723,12.66175 l -4.3666,4.87199 1.1206,0.37353 1.1206,0.37353 1.0882,-1.08824 c 0.5986,-0.59857 1.8631,-1.08825 2.8101,-1.08825 h 1.7218 l 4.9299,4.85263 4.9299,4.85263 v 3.23626 l 2.3198,-1.52002 2.3198,-1.52002 2.7434,2.86347 2.7435,2.86357 2.0287,0.62795 c 1.1158,0.34538 3.8897,2.33133 6.1642,4.41313 l 4.1354,3.78522 h 2.5564 l 1.7907,3.17913 c 0.9848,1.74852 2.8807,4.10812 4.2131,5.24361 l 2.4226,2.06448 -2.0459,4.01021 -2.0458,4.0102 v 1.99532 c 0,2.56913 0.425,2.5168 4.4419,-0.54699 z"
       fill="#ffffff"
       style="fill:#4a4a4a;fill-opacity:1;stroke:none;stroke-width:0.978958;stroke-linecap:round;stroke-linejoin:round;stroke-dasharray:none;stroke-opacity:1"
       id="rs" /><path

       d="m -1295.6264,105.57766 v -2.30238 l 0.8931,-0.55194 0.8931,-0.55196 0.6478,-3.834422 0.6478,-3.83443 -1.2097,-2.26041 -1.2097,-2.26041 -0.2857,-5.14932 -0.2857,-5.14931 h 0.9327 c 0.513,0 0.9327,-0.44019 0.9327,-0.97819 v -0.9782 h -6.412 l -2.1741,1.52276 -2.174,1.52275 -2.174,-1.52275 -2.1741,-1.52276 h -8.253 l -0.5265,0.85185 c -0.2895,0.46852 -1.8562,1.11779 -3.4814,1.44284 l -2.9346,0.56735 v 4.93988 l -3.1791,-0.008 -3.1791,-0.008 -6.0796,-1.84888 c -3.3438,-1.01693 -8.7361,-2.15721 -11.9829,-2.53411 l -5.9033,-0.68445 v 9.48497 l 4.1573,0.0683 c 2.2866,0.0376 6.4558,0.57401 9.265,1.19212 l 5.1076,1.12385 4.6744,2.39237 4.6743,2.39237 3.1941,3.262872 c 1.7567,1.79459 3.7737,4.09071 4.4821,5.10245 l 1.2882,1.83969 5.1367,0.49357 5.1367,0.49357 0.4866,1.26794 0.4865,1.26793 -2.2783,3.08161 -2.2783,3.0816 1.7923,1.31059 1.7924,1.31058 5.7871,-5.87777 5.7872,-5.87778 v -2.30237 z"
       fill="#ffffff"
       style="fill:#4a4a4a;fill-opacity:1;stroke:none;stroke-width:0.978958;stroke-linecap:round;stroke-linejoin:round;stroke-dasharray:none;stroke-opacity:1"
       id="sc" /><path

       d="m -1326.9286,82.619428 c 0,-0.538 0.8804,-1.85856 1.9564,-2.93458 l 1.9564,-1.95639 h 3.9742 l 0.4865,-1.26784 0.4865,-1.26783 4.6624,0.14794 4.6624,0.14794 2.2224,1.18939 2.2225,1.18938 2.3455,-1.53684 2.3455,-1.53684 h 6.9162 v -2.83735 l -1.7118,-0.96588 -1.7118,-0.96588 1.2209,-1.23301 1.221,-1.23302 3.4911,0.099 3.4911,0.099 -1.5886,-1.75527 -1.5886,-1.75527 -2.0438,0.53446 -2.0439,0.53447 0.4965,-2.59701 0.4964,-2.59701 h -8.323 l -0.5631,-1.46729 -0.5631,-1.46729 0.517,-1.34727 0.517,-1.34726 -2.0113,-3.29916 -2.0114,-3.29916 v -3.93968 -3.939667 l -1.5228,-2.17404 -1.5227,-2.174038 h -10.7181 l -2.4984,-1.637009 -2.4984,-1.637008 -3.5809,-0.332968 c -1.9695,-0.183128 -6.5733,-0.58544 -10.2309,-0.894021 l -6.65,-0.561063 -4.2358,1.991115 -4.2359,1.991115 -0.5813,2.315973 c -0.3197,1.273804 -1.4736,3.344834 -2.5642,4.602401 l -1.9825,2.28643 v 3.94839 l -1.5381,1.69961 -1.5381,1.69961 -0.3765,5.88961 -0.3763,5.88961 -1.5105,3.61502 -1.5104,3.61502 2.7189,-0.54378 2.7189,-0.54378 2.1733,3.17179 c 1.1954,1.74452 2.1734,3.63683 2.1734,4.20526 v 1.03337 l 4.1573,0.6399 c 2.2865,0.35196 5.4779,0.85173 7.0919,1.11064 1.614,0.25888 5.5757,1.32575 8.8038,2.37085 3.228,1.04511 6.4194,1.92382 7.0919,1.95277 l 1.2227,0.0526 v -0.97819 z"
       fill="#ffffff"
       style="fill:#4a4a4a;fill-opacity:1;stroke:none;stroke-width:0.978958;stroke-linecap:round;stroke-linejoin:round;stroke-dasharray:none;stroke-opacity:1"
       id="pr"/>

       <a href="./../pages/atividades/list/search_result.html?search=sp" target="_blank" rel="noopener noreferrer"><path
       d="m -1275.5734,57.020088 7.8256,-5.30827 4.4345,-1.66607 4.4346,-1.66606 h 5.1054 l 0.563,-1.46729 0.5631,-1.46729 h 1.4519 c 0.7986,0 2.5046,-0.4796 3.7911,-1.06574 l 2.3391,-1.06575 -0.4436,-2.320857 -0.4437,-2.32086 1.3989,-1.398919 c 0.7693,-0.76938 2.248,-1.5701 3.286,-1.779336 l 1.8879,-0.381496 -3.2752,-1.65442 -3.2752,-1.654421 -3.4315,1.43374 -3.4315,1.43374 -0.7634,-0.471832 -0.7635,-0.471833 -1.2088,1.456532 -1.2089,1.456532 h -6.3046 l -1.4165,-1.711841 c -0.7791,-0.941512 -2.0109,-2.901227 -2.7373,-4.354922 l -1.3208,-2.643081 0.6267,-5.332138 0.6267,-5.332138 -2.7307,-0.95193 -2.7308,-0.95193 -1.1338,-3.694347 -1.1338,-3.694347 0.8868,-1.656963 0.8867,-1.656964 -0.8496,-0.883496 c -0.4672,-0.485927 -0.9968,-1.983974 -1.1769,-3.328991 l -0.3228,-2.455268 -2.201,-0.110986 -2.2009,-0.110996 v 1.689244 h -12.7165 v 1.76075 h -6.8591 l -0.5628,-2.242217 -0.5628,-2.242217 -6.2683,-0.671286 -6.2684,-0.671286 -0.5514,-0.892251 -0.5515,-0.89224 -2.9994,2.191742 c -1.6497,1.20543 -4.4106,3.512306 -6.1352,5.126326 l -3.1357,2.934584 -2.1274,4.187455 c -1.1701,2.303061 -2.1274,4.834139 -2.1274,5.624618 v 1.437163 h -0.7833 c -0.4308,0 -1.7535,1.996886 -2.9392,4.437579 l -2.156,4.437579 -3.419,2.017233 c -1.8805,1.109468 -3.419,2.219132 -3.419,2.465833 0,0.24672 2.311,0.404444 5.1356,0.350496 6.0138,-0.114849 14.0918,1.129228 16.8738,2.59877 l 1.9564,1.033462 5.8692,0.572889 5.8691,0.57288 2.201,2.549468 2.2009,2.549467 v 8.421667 l 2.4153,3.55906 2.4152,3.55906 -0.5635,1.46847 -0.5634,1.46847 2.3056,0.0133 c 1.2681,0.008 3.296,0.27878 4.5065,0.60319 l 2.2009,0.58982 v 3.44599 l 2.201,1.48588 2.2009,1.48587 1.4673,-1.23966 c 0.807,-0.68179 4.9888,-3.62832 9.2928,-6.54784 z"
       fill="#ffffff"
       style="fill:#4a4a4a;fill-opacity:1;stroke:none;stroke-width:0.978958;stroke-linecap:round;stroke-linejoin:round;stroke-dasharray:none;stroke-opacity:1"
       id="sp" class="active" >SP</path></a><path

       d="m -1367.9149,47.316398 1.5606,-0.79636 2.0609,1.44362 2.061,1.44362 1.0248,-1.91492 c 0.5637,-1.05322 1.0249,-2.60415 1.0249,-3.44647 v -1.53156 l 1.9315,-1.931537 c 1.0624,-1.06232 2.1853,-2.933117 2.4955,-4.157327 l 0.564,-2.225784 8.5416,-6.038394 8.5415,-6.038394 4.7355,-9.612717 4.7354,-9.612717 3.2262,-2.934584 3.2262,-2.934583 0.3207,-4.250255 0.3208,-4.250255 -3.4237,-1.804475 c -1.883,-0.992476 -5.8447,-2.884207 -8.8038,-4.203791 -2.959,-1.319584 -7.0543,-3.168176 -9.1006,-4.108025 l -3.7206,-1.708711 0.4439,-1.156617 0.4438,-1.156617 -1.8587,-1.160823 -1.8588,-1.160824 v -3.896148 h -0.9401 c -0.517,0 -1.8376,-0.963375 -2.9346,-2.140876 l -1.9945,-2.140877 v -3.543803 h -0.9205 c -0.5062,0 -1.1925,0.440188 -1.525,0.978195 l -0.6045,0.978194 h -10.5293 l -0.6068,0.981814 -0.6068,0.981814 -2.63,-0.597041 c -1.4466,-0.32837 -4.531,-1.484313 -6.8544,-2.568739 l -4.2243,-1.971746 -4.3404,0.489224 -4.3405,0.489234 -4.6409,4.223942 c -5.8635,5.336637 -5.7803,5.188441 -8.0606,14.351091 -1.0504,4.220322 -2.6107,9.078329 -3.4673,10.795354 l -1.5575,3.122103 1.5124,2.159266 1.5124,2.159267 -1.5458,1.708025 -1.5457,1.708025 1.7328,5.194506 1.7329,5.194507 -0.2176,4.890972 c -0.1197,2.690035 -0.4286,5.610239 -0.6863,6.489244 l -0.4687,1.598272 2.7199,0.722397 c 1.4959,0.397323 4.9096,0.912019 7.586,1.143802 l 4.866,0.421367 1.1664,-1.595141 1.1664,-1.595142 2.2822,1.426697 c 1.2552,0.784697 3.437,1.693548 4.8484,2.019776 l 2.5662,0.59303 1.3209,3.188718 1.3208,3.188719 -0.2888,2.203774 -0.2888,2.203774 h 2.0964 v 7.95409 l 1.0174,1.90092 1.0173,1.90093 2.6509,-0.63323 c 1.458,-0.34827 3.3531,-0.99159 4.2115,-1.42953 z"
       fill="#ffffff"
       style="fill:#4a4a4a;fill-opacity:1;stroke:none;stroke-width:0.978958;stroke-linecap:round;stroke-linejoin:round;stroke-dasharray:none;stroke-opacity:1"
       id="ms" /><path

       d="m -1209.9365,37.045356 -0.522,-1.36018 2.6092,-2.419368 2.6091,-2.419368 c 6.8462,-1.920587 5.5284,-1.827855 7.8602,-3.446571 0.024,-0.403505 0.018,-2.898879 0.4614,-5.190495 l 0.8059,-4.166522 -3.6754,-0.587738 -3.6755,-0.587738 -1.2332,-2.304235 -1.2332,-2.304235 -0.94,0.58094 c -0.517,0.319507 -1.9573,2.881174 -3.2006,5.692505 l -2.2606,5.111555 -4.6514,2.18646 -4.6514,2.18646 -3.4944,-0.480557 -3.4944,-0.480548 -5.8692,1.517473 c -3.228,0.834605 -6.2873,1.892219 -6.7984,2.35021 l -0.9293,0.832747 h 2.9672 c 1.6319,0 3.2621,0.295003 3.6227,0.655556 l 0.6556,0.655567 -1.5489,2.363904 c -1.8248,2.785013 -1.3169,3.724183 1.2664,2.3417 l 1.8483,-0.98915 1.4145,0.89496 c 0.7781,0.492223 2.3832,0.901713 3.5669,0.909943 l 2.1523,0.015 0.9058,-1.618424 0.9057,-1.618423 1.6504,0.633313 1.6504,0.633302 -0.5782,0.935487 -0.5781,0.935475 5.6517,0.29417 c 3.1084,0.1618 6.0118,0.1396 6.452,-0.0493 l 0.8003,-0.34349 z"
       fill="#ffffff"
       style="fill:#4a4a4a;fill-opacity:1;stroke:none;stroke-width:0.978958;stroke-linecap:round;stroke-linejoin:round;stroke-dasharray:none;stroke-opacity:1"
       id="rj" /><path

       d="m -1256.5181,32.751082 1.9341,-1.934184 1.245,0.473436 1.2449,0.473427 10.6829,-3.430235 10.6829,-3.430234 h 9.4071 l 3.9241,-1.5701 3.9241,-1.5701 1.131,-3.775048 1.1311,-3.775048 2.3011,-2.16181 2.3011,-2.16181 V 4.486417 l 3.7507,-2.108009 3.7507,-2.108009 2.7852,-5.148727 2.7851,-5.148726 -1.3119,-3.167198 -1.3118,-3.167198 1.3788,-0.858004 1.3789,-0.857994 -1.0287,-1.741675 -1.0286,-1.741675 0.3444,-1.467292 0.3445,-1.467292 2.4309,-1.783835 2.4309,-1.783835 3.2416,-0.172583 3.2415,-0.172583 -2.1379,-3.423681 -2.138,-3.42368 0.6703,-2.445486 c 0.6252,-2.281346 1.888,-4.029086 7.6318,-10.563522 l 2.2644,-2.57588 -1.7583,-1.285739 c -0.9671,-0.707127 -3.9155,-1.92626 -6.552,-2.709207 l -4.7936,-1.423567 -2.1,0.527052 -2.1,0.527051 -1.2013,-3.322242 -1.2013,-3.322242 -2.4837,-1.131673 c -1.366,-0.622406 -3.2411,-1.131673 -4.167,-1.131673 h -1.6833 l -3.5988,-2.445486 c -1.9794,-1.345018 -4.0258,-2.445487 -4.5475,-2.445487 -0.5217,0 -1.1188,-0.51093 -1.327,-1.13539 l -0.3785,-1.13539 -5.4355,0.17762 -5.4355,0.177621 -1.2243,-1.475215 -1.2243,-1.475215 0.5486,-1.429631 0.5486,-1.429729 -1.8233,-0.578681 -1.8232,-0.57869 -2.7732,0.656985 -2.7732,0.656995 -2.0391,1.846537 c -2.4888,2.25376 -14.8236,8.656825 -16.6753,8.656825 h -1.3381 v -1.34756 c 0,-0.741129 -0.648,-1.885275 -1.44,-2.542621 l -1.44,-1.195158 -1.5644,1.564426 c -0.8604,0.86044 -2.1933,1.564427 -2.9619,1.564427 h -1.3974 l -0.1422,2.200937 c -0.078,1.210516 -0.056,3.526587 0.05,5.14677 l 0.192,2.945833 -2.8401,1.072003 -2.8402,1.072004 -1.0716,3.073976 -1.0716,3.074074 h 1.6991 l 0.6688,3.045315 0.6689,3.045315 -2.0209,2.733564 -2.021,2.733467 1.4414,0.5531 1.4414,0.553101 -0.3718,4.462327 c -0.2044,2.45429 -0.5397,4.590569 -0.7451,4.747374 -0.2054,0.156804 -1.9142,1.208657 -3.7972,2.337395 l -3.4237,2.052252 -8.0693,-0.695379 -8.0693,-0.695379 -1.4245,1.424447 -1.4244,1.424447 -4.9058,0.24808 c -2.6983,0.136448 -5.7993,0.53161 -6.891,0.878135 l -1.9852,0.630055 v 2.434922 l -2.8869,2.13442 -2.887,2.13442 -0.9993,3.619124 c -0.5496,1.990528 -0.8566,3.761843 -0.6822,3.936157 0.1743,0.174373 1.5412,-0.31808 3.0374,-1.094306 l 2.7205,-1.411339 2.5606,0.979955 2.5606,0.979955 5.1356,0.125874 5.1355,0.125874 v 4.738765 l 4.1573,-0.784873 c 2.2865,-0.431678 5.7704,-0.818074 7.7419,-0.858669 l 3.5846,-0.07376 0.7358,-0.733646 0.7357,-0.733646 h 6.2181 l 1.7376,1.92 1.7375,1.92 -0.5496,1.432175 -0.5496,1.432174 1.3543,1.123946 1.3544,1.123945 -0.9817,2.154376 -0.9816,2.154375 1.0123,2.662254 1.0122,2.662352 h 2.6799 l 1.7741,1.9604 1.7741,1.960399 -1.1335,2.487549 c -0.6234,1.368102 -1.1334,3.542042 -1.1334,4.831009 v 2.343558 l 2.053,3.479633 2.0531,3.479634 h 3.7194 l 1.9342,-1.934184 z"
       fill="#ffffff"
       style="fill:#4a4a4a;fill-opacity:1;stroke:none;stroke-width:0.978958;stroke-linecap:round;stroke-linejoin:round;stroke-dasharray:none;stroke-opacity:1"
       id="mg" /><path

       d="m -1193.9333,14.214297 1.0116,-1.890165 1.8699,-0.59349 1.9018,-1.072101 1.6939,-2.155354 1.7259,-2.633984 2.4003,-2.324582 c -0.2772,-3.687597 -2.2928,-4.079462 1.357,-4.079462 l 1.7009,-1.946411 1.0113,-1.889578 1.0112,-1.889579 0.7928,-7.399649 0.7928,-7.39965 -3.5341,-2.449106 -3.5341,-2.449105 h -5.0657 l -0.563,1.467291 -0.5631,1.467292 h -2.996 v 0.932171 c 0,0.512691 0.5163,2.065262 1.1473,3.450189 l 1.1474,2.518068 -1.0759,1.075819 -1.0758,1.075818 0.8884,2.336515 0.8883,2.336516 -3.1362,5.120261 c -3.2473,5.301716 -6.2878,8.455121 -8.2067,8.511465 l -1.1087,0.03257 -0.4579,2.395109 -0.4578,2.395109 0.7379,0.784004 c 0.4059,0.431207 0.8961,1.660974 1.0894,2.732879 l 0.3515,1.948857 2.9226,0.625448 c 1.6075,0.343992 3.2374,0.677527 3.6219,0.741188 0.3846,0.06368 1.1545,-0.73483 1.7108,-1.774445 z"
       fill="#ffffff"
       style="fill:#4a4a4a;fill-opacity:1;stroke:none;stroke-width:0.978958;stroke-linecap:round;stroke-linejoin:round;stroke-dasharray:none;stroke-opacity:1"
       id="es" /><path

       d="m -1317.0586,-15.933656 2.8467,-2.686905 v -2.383077 l 1.7119,-0.890001 c 0.9415,-0.489498 4.3529,-1.209928 7.581,-1.601011 l 5.8692,-0.71101 0.6969,-1.123456 0.697,-1.123457 7.1286,0.18123 c 3.9207,0.09969 8.2726,0.276272 9.6707,0.392423 l 2.5421,0.211192 1.9627,-1.962649 1.9626,-1.96265 0.6149,-2.44979 0.6148,-2.44979 -1.9174,-1.735317 -1.9176,-1.735317 2.453,-2.915215 2.4531,-2.915215 -0.6394,-2.089522 c -0.3517,-1.14928 -1.0563,-2.611681 -1.5657,-3.249757 l -0.9264,-1.160237 1.0461,-1.954628 c 0.5753,-1.075036 1.0461,-2.185873 1.0461,-2.468474 0,-0.28261 -3.6316,-0.641686 -8.0701,-0.797952 l -8.0701,-0.273895 0.1585,-3.42368 c 0.087,-1.883025 0.1973,-3.973915 0.2446,-4.646424 l 0.086,-1.222743 h 13.4551 l 0.9249,1.222743 c 0.5087,0.672509 0.9791,2.262955 1.0455,3.534217 0.066,1.271359 0.3601,2.551033 0.6528,2.843709 l 0.5321,0.532196 2.1429,-0.956175 2.1428,-0.956175 0.2715,-4.673129 0.2715,-4.673128 1.1295,-1.360962 1.1296,-1.360962 0.8673,0.53606 0.8674,0.536051 v -1.329366 c 0,-0.731162 0.5222,-1.851624 1.1605,-2.489896 l 1.1604,-1.160432 1.7377,1.572545 1.7377,1.572545 1.5037,-0.577027 1.5036,-0.577037 v -3.921777 l -2.1768,-4.480522 -2.1769,-4.480522 -8.2804,0.366432 -8.2804,0.366432 -0.3845,1.153389 -0.3845,1.153389 h -3.3808 l -2.0885,-1.945727 -2.0886,-1.945726 -1.4467,0.555184 -1.4468,0.555184 -1.6526,-2.522177 -1.6525,-2.522176 h -5.0009 l -1.5443,1.354603 -1.5443,1.354604 -5.6246,-2.457127 -5.6246,-2.457126 -0.03,-2.565609 -0.03,-2.565608 -1.0024,1.721231 c -0.5513,0.946686 -2.0447,2.763692 -3.3188,4.037791 l -2.3165,2.31656 -1.1174,4.276862 c -0.6145,2.352264 -1.7489,6.477799 -2.5208,9.167834 l -1.4036,4.890972 -3.1788,1.467292 -3.1788,1.467291 -1.2909,4.078387 -1.2908,4.078386 -3.6065,1.443032 -3.6065,1.443033 -2.3903,4.260525 c -1.3147,2.343266 -3.1607,5.090329 -4.1022,6.104423 -0.9415,1.014192 -2.3827,3.257681 -3.2026,4.985564 l -1.4908,3.141569 0.931,3.246236 0.931,3.246139 -0.5419,2.159071 -0.5418,2.15907 2.4296,0.609817 2.4297,0.609816 -0.5126,1.960497 -0.5127,1.960497 h 1.5671 c 0.8619,0 4.1046,1.254144 7.2059,2.786974 6.1259,3.02761 14.2425,6.83709 14.7747,6.934323 0.1828,0.03336 1.6134,-1.1484 3.1791,-2.626159 z"
       fill="#ffffff"
       style="fill:#4a4a4a;fill-opacity:1;stroke:none;stroke-width:0.978958;stroke-linecap:round;stroke-linejoin:round;stroke-dasharray:none;stroke-opacity:1"
       id="go" /><path

       d="m -1172.3152,-25.676473 2.8128,-2.65482 -0.523,-2.08375 -0.523,-2.08375 2.6679,-8.711506 2.6678,-8.711506 0.3146,-12.227431 c 0.2897,-11.25804 0.7695,-18.344081 1.3247,-19.563889 0.1224,-0.269004 0.3441,-1.944455 0.4927,-3.723302 l 0.2702,-3.234204 1.8235,-1.393634 c 1.3667,-0.928854 1.2742,-0.971327 0.4583,-2.291714 l -1.3653,-0.898061 0.6009,-1.565991 0.601,-1.565992 h 4.9524 v 1.898676 c 0,1.044222 0.377,2.131681 0.8378,2.416434 l 0.8378,0.517797 3.0749,-3.826403 c 1.6912,-2.104488 3.075,-4.292318 3.075,-4.861921 0,-0.56955 0.3591,-1.03552 0.7981,-1.03552 0.4389,0 1.7876,-1.76075 2.9971,-3.91277 l 2.1991,-3.91278 h -3.0375 l -1.9675,-1.68465 -1.9675,-1.68464 -0.031,-1.49449 c -0.017,-0.82195 -0.6774,-2.34894 -1.4673,-3.39326 -0.7899,-1.04432 -1.4362,-2.64797 -1.4362,-3.56356 v -1.66479 l 1.4673,-0.56306 1.4673,-0.56305 1.3423,0.51513 1.3424,0.51514 0.4516,-2.36225 0.4516,-2.36224 -1.8177,-5.73946 c -0.9997,-3.15673 -2.2472,-6.16898 -2.7722,-6.69388 -0.525,-0.52496 -0.9545,-1.55816 -0.9545,-2.29602 0,-0.73783 -0.5542,-1.89564 -1.2315,-2.57304 l -1.2314,-1.23145 -1.2134,0.4045 -1.2136,0.4045 -0.5943,-1.54868 -0.5942,-1.54868 -1.1181,-0.006 c -0.6149,-0.003 -2.368,-0.65796 -3.8959,-1.45477 l -2.7776,-1.4487 -1.8688,1.0001 c -1.0278,0.55005 -1.8695,1.3147 -1.8704,1.69932 -10e-4,0.38458 -1.9818,1.95013 -4.4019,3.47905 l -4.4001,2.77973 v 1.89222 l -0.8946,-0.55291 -0.8947,-0.55293 -0.4135,1.22881 -0.4136,1.22881 -1.6264,-1.34247 -1.6263,-1.34248 v -2.75635 l -1.5461,-0.5933 -1.5462,-0.59329 0.4919,-1.88117 0.492,-1.88107 -2.125,-0.78847 -2.1249,-0.78848 -3.2914,3.19282 -3.2915,3.19283 -6.2665,2.05714 c -3.4465,1.13148 -7.1377,2.05715 -8.2023,2.05715 h -1.9359 v -1.73434 l -3.1252,-0.45869 c -1.7189,-0.25228 -3.8545,-0.26799 -4.7457,-0.0349 l -1.6205,0.42377 0.6982,3.81799 0.6982,3.81799 -3.2083,3.74814 -3.2083,3.74815 -4.727,1.21375 c -2.5999,0.66757 -5.7493,1.46768 -6.9986,1.77806 l -2.2715,0.56431 -2.3749,-1.27107 -2.3749,-1.27106 -0.031,-1.05743 c -0.017,-0.58159 -0.6604,-1.8887 -1.4296,-2.90475 l -1.3986,-1.84732 -3.5569,3.80371 c -5.7628,6.16263 -6.3002,6.84678 -6.3002,8.02051 v 1.11817 l 2.3289,1.52599 2.3289,1.52598 -0.2255,2.86552 -0.2254,2.86553 -1.2443,1.49937 -1.2444,1.49938 1.2289,2.96686 1.2289,2.96687 -0.6123,0.61228 -0.6122,0.61227 1.1238,1.354213 1.124,1.354212 -1.056,1.055961 -1.056,1.055961 0.5019,1.307748 0.5018,1.307748 -1.114,3.375456 -1.1139,3.375455 1.9438,4.245853 c 2.2544,4.924036 2.6647,7.462255 1.6026,9.913023 -0.4182,0.964715 -0.5609,1.953454 -0.3171,2.19722 0.5514,0.551408 11.528,-5.314432 13.4003,-7.161361 2.0309,-2.002853 5.6083,-3.148123 9.8338,-3.148123 h 3.7444 l 0.5938,1.547308 c 0.3265,0.851009 0.5937,2.432965 0.5937,3.515435 v 1.968127 l 4.6464,-0.628353 4.6465,-0.628343 6.0716,3.96022 6.0717,3.96022 h 4.6757 l 1.9525,1.711841 c 1.0739,0.941512 2.4458,2.643472 3.0487,3.782091 l 1.0962,2.07025 5.1508,0.683269 5.1508,0.683269 3.6885,2.073088 3.6886,2.073087 v 4.419874 l -1.8852,1.320465 c -1.0368,0.726231 -2.428,2.511905 -3.0915,3.968241 -0.6636,1.456336 -1.5606,2.647777 -1.9932,2.647777 -0.4327,0 -1.3001,0.959178 -1.9275,2.131486 l -1.1408,2.131486 1.7495,3.248583 c 0.9622,1.786673 2.1203,3.248584 2.5736,3.248584 h 0.8242 v 3.801851 l 2.174,1.522755 c 2.7448,1.922543 2.3956,1.991897 5.7054,-1.132064 z"
       fill="#ffffff"
       style="fill:#4a4a4a;fill-opacity:1;stroke:none;stroke-width:0.978958;stroke-linecap:round;stroke-linejoin:round;stroke-dasharray:none;stroke-opacity:1"
       id="ba" /><path

       d="m -1392.5654,-41.229765 3.3214,-1.589859 4.2764,0.586143 4.2764,0.586135 2.8691,1.483725 2.8692,1.483725 h 2.8201 c 1.551,0 3.1279,-0.307779 3.5041,-0.683953 l 0.6839,-0.683954 4.1978,0.258146 4.1977,0.258135 1.2598,-1.517962 1.2598,-1.517962 1.5151,0.847889 1.5152,0.84788 1.0656,3.223346 1.0657,3.223346 1.3551,0.44368 1.3552,0.443689 -0.628,-3.347577 -0.628,-3.347577 3.1856,-4.746297 c 1.752,-2.610508 4.0808,-6.192949 5.1749,-7.960938 1.0941,-1.768087 2.8131,-4.12485 3.8199,-5.237351 l 1.8305,-2.022711 h 3.518 l 1.8807,-4.157326 c 1.0345,-2.28653 2.833,-5.147748 3.9967,-6.358264 l 2.1159,-2.200937 h 2.5488 l 1.0494,-3.668229 c 0.5771,-2.017527 1.3649,-5.208886 1.7506,-7.09191 0.3857,-1.883025 1.774,-5.77213 3.085,-8.642348 l 2.3836,-5.218668 -0.9463,-2.714781 -0.9464,-2.71479 0.2243,-11.63073 0.2243,-11.63073 2.0831,-6.3163 c 1.1457,-3.47396 1.8635,-6.5359 1.5951,-6.80432 -0.2685,-0.26844 -19.2284,-1.50515 -42.1319,-2.74814 l -41.6437,-2.26002 -2.7711,-2.1848 -2.7711,-2.18479 -0.054,-1.25346 -0.054,-1.25346 -1.7118,-0.60416 c -0.9416,-0.33229 -2.7023,-1.49566 -3.9128,-2.58527 l -2.201,-1.98114 v -2.16259 c 0,-2.83677 -3.0324,-12.16874 -3.9519,-12.16874 -1.1084,0 -2.0638,3.83853 -2.544,10.22018 l -0.4377,5.8181 -1.0572,1.2738 -1.0571,1.27381 h -38.8891 l 0.043,0.73364 c 0.023,0.40351 0.4087,2.62734 0.8562,4.94184 l 0.8135,4.20819 -1.4005,4.7776 -1.4004,4.77761 2.6257,3.96775 2.6258,3.96775 5.0633,-0.11673 5.0634,-0.11673 3.1263,1.61667 3.1263,1.61666 -0.015,1.6867 c -0.01,0.9277 -0.3903,2.2788 -0.8489,3.00247 l -0.8339,1.31577 1.8283,4.81164 1.8282,4.81164 -1.9229,3.65453 c -1.0577,2.01 -2.8808,5.635382 -4.0515,8.056413 -1.1707,2.421031 -2.3969,4.519063 -2.7247,4.662368 -0.3279,0.143247 -1.1731,0.625986 -1.8784,1.072786 l -1.2823,0.812303 2.1458,2.409097 2.1459,2.409097 0.3746,3.365576 c 0.206,1.851037 0.4464,4.930785 0.5344,6.843742 l 0.1598,3.478264 -0.7667,1.240644 -0.7668,1.240644 2.0589,2.191547 2.0589,2.191547 v 9.106599 l 11.9829,0.274657 11.9829,0.274658 0.065,1.467291 c 0.036,0.807011 -0.3238,2.263445 -0.7988,3.236455 l -0.8635,1.769162 0.6366,2.898488 0.6367,2.898488 3.3313,1.391971 3.3313,1.391873 1.5681,3.288298 1.568,3.288299 4.5556,-4.203302 4.5556,-4.203301 3.3215,-1.58986 z"
       fill="#ffffff"
       style="fill:#4a4a4a;fill-opacity:1;stroke:none;stroke-width:0.978958;stroke-linecap:round;stroke-linejoin:round;stroke-dasharray:none;stroke-opacity:1"
       id="mt" /><path

       d="m -1274.3898,-59.46331 -0.2054,-3.179132 -0.9782,-0.71867 -0.9782,-0.71866 -5.6246,-0.01497 -5.6246,-0.01497 v 7.825556 h 13.6165 l -0.2052,-3.179132 z"
       fill="#ffffff"
       style="fill:#4a4a4a;fill-opacity:1;stroke:none;stroke-width:0.978958;stroke-linecap:round;stroke-linejoin:round;stroke-dasharray:none;stroke-opacity:1"
       id="df" /><path

       d="m -1273.1475,-87.821167 1.8041,1.126684 3.0337,-0.870055 3.0338,-0.870065 3.3072,0.536696 3.3073,0.536697 0.6967,-2.194971 c 0.3831,-1.20719 0.7842,-3.459482 0.8912,-5.004932 l 0.1945,-2.809961 -0.7216,-1.167573 -0.7216,-1.167573 0.9443,-1.76456 0.9444,-1.76457 h -1.7971 l -0.4557,-2.38337 -0.4556,-2.38337 1.4803,-1.4803 1.4803,-1.4803 -1.2584,-1.5164 -1.2585,-1.5164 h 2.5619 l -2.7487,-2.86904 -2.7487,-2.86905 2.3071,-3.73377 c 1.269,-2.05352 3.4057,-4.6789 4.7484,-5.83414 l 2.4412,-2.10048 -3.6752,-2.16836 -3.6752,-2.16837 -0.9529,-1.78051 c -0.5241,-0.97927 -0.9648,-2.79988 -0.9793,-4.04581 l -0.026,-2.2652 -2.7416,-3.30542 -2.7415,-3.30542 1.5451,-4.31599 1.5452,-4.31599 2.2498,-0.567 2.2499,-0.56699 -0.3017,-1.59348 -0.3016,-1.59348 -3.7423,-0.30849 -3.7422,-0.3085 -1.6297,-2.86445 -1.6297,-2.86445 -1.2227,-0.006 -1.2228,-0.007 v -1.04804 c 0,-0.57643 -0.6545,-1.70255 -1.4543,-2.50252 l -1.4544,-1.45438 1.9708,-2.66577 1.9709,-2.66578 0.1547,-7.58365 0.1547,-7.58364 -1.8944,-1.89437 -1.8944,-1.89438 -4.6459,-1.39823 -4.6459,-1.39823 v 0.76837 c 0,0.4226 0.8781,0.99806 1.9515,1.2787 l 1.9515,0.51031 0.6266,1.6329 0.6266,1.6329 -1.259,3.81467 -1.2589,3.81466 -1.8082,1.94084 c -0.9945,1.0675 -1.8082,2.55279 -1.8082,3.30072 v 1.35979 l -3.9128,1.53694 -3.9128,1.53694 v 2.5885 c 0,1.42366 -0.4413,3.41321 -0.9808,4.42124 l -0.9808,1.83274 0.9808,0.6062 0.9808,0.60619 v 2.41917 c 0,1.33054 -0.6683,4.01872 -1.4851,5.97364 l -1.4851,3.55446 -4.1758,4.48424 -4.1757,4.48424 -1.3145,3.42368 c -0.7229,1.88303 -2.1118,5.18443 -3.0864,7.33646 -0.9745,2.15203 -2.4916,6.99409 -3.3712,10.76014 l -1.5994,6.84736 0.6494,8.7029 c 0.3571,4.7866 0.9654,9.55735 1.3518,10.60167 l 0.7023,1.898677 1.2891,-1.553275 c 0.709,-0.854302 1.6367,-1.553272 2.0615,-1.553272 h 0.7725 l 0.648,3.835791 0.6481,3.835794 3.962,1.585262 3.9621,1.585262 1.6345,-1.479226 1.6345,-1.479225 3.5967,0.583659 3.5967,0.583669 0.5823,1.834701 0.5823,1.834702 2.3699,-0.594791 2.3698,-0.594791 0.6715,1.815626 c 0.3692,0.998541 1.1437,2.143224 1.7209,2.543599 l 1.0495,0.728022 1.7801,-2.14342 1.7801,-2.14342 1.8041,1.126685 z"
       fill="#ffffff"
       style="fill:#4a4a4a;fill-opacity:1;stroke:none;stroke-width:0.978958;stroke-linecap:round;stroke-linejoin:round;stroke-dasharray:none;stroke-opacity:1"
       id="to" /><path

       d="m -1445.6521,-90.785096 c 0.5772,-0.356728 2.7568,-3.966775 4.8436,-8.022271 l 3.7941,-7.373733 -1.7325,-4.87796 -1.7325,-4.87796 1.0162,-1.89858 c 1.4121,-2.63858 1.3878,-2.68446 -2.0645,-3.88793 l -3.0805,-1.07386 h -7.2698 l -2.5969,-2.04276 -2.5969,-2.04277 -1.5341,-2.96657 -1.5341,-2.96657 1.1024,-4.378 1.1025,-4.37801 -0.6534,-5.77468 -0.6533,-5.77467 h -1.8102 c -0.9956,0 -3.69,-0.73552 -5.9874,-1.63446 l -4.1769,-1.64337 -3.2261,-3.25651 -3.2262,-3.25651 -3.6212,0.0287 -3.6212,0.0287 -3.088,2.81074 -3.0881,2.81075 -1.6749,3.52942 -1.6748,3.52942 -2.5524,0.64061 -2.5524,0.6406 -4.8813,3.50614 -4.8813,3.50615 -6.5276,-0.16425 -6.5276,-0.16424 -2.7835,2.90524 -2.7834,2.90523 6.8346,-0.67222 6.8347,-0.67222 1.8789,-0.96991 1.8789,-0.96992 1.3019,1.78041 1.3019,1.78041 -0.089,6.41353 c -0.049,3.52747 -0.063,8.20803 -0.031,10.40114 l 0.058,3.98771 2.2097,2.85965 c 2.9627,3.83404 3.5439,4.36529 8.3389,7.62092 l 4.1311,2.80488 3.2054,-0.48481 3.2053,-0.48481 2.7564,1.40752 2.7564,1.40753 1.1564,-0.40462 1.1564,-0.40461 3.1582,2.742464 3.1582,2.742466 3.4471,0.646694 3.4472,0.646694 2.1984,2.300029 2.1984,2.300029 7.3666,-0.262753 c 4.0517,-0.144519 7.8388,-0.554617 8.4161,-0.911335 z"
       fill="#ffffff"
       style="fill:#4a4a4a;fill-opacity:1;stroke:none;stroke-width:0.978958;stroke-linecap:round;stroke-linejoin:round;stroke-dasharray:none;stroke-opacity:1"
       id="ro" /><path

       d="m -1138.724,-114.97584 c 2.1268,-0.78561 1.7141,-2.74668 3.4456,-3.97686 l 2.3431,-1.48568 c 0.5247,-0.33272 0.4653,-1.13099 2.4461,-1.98006 l 3.5997,-1.54554 -1.8605,-1.13139 c -1.0233,-0.62224 -2.7841,-2.16552 -3.9128,-3.42955 l -2.0542,-2.28897 -4.7437,-2.41399 c -5.1797,-2.63594 -6.2466,-2.51973 -4.6284,0.50402 l 1.0574,1.97585 v 8.69282 l -1.4548,1.20739 -1.4549,1.20738 -1.4797,-0.56783 -1.4797,-0.56783 v 0.82772 c 0,0.45524 0.6603,1.37573 1.4673,2.0455 l 1.4673,1.21776 v 2.96843 l 1.7118,1.29747 1.7119,1.29748 0.9781,-0.31671 0.9782,-0.31672 c 0.9733,-0.70189 1.2359,-2.25102 1.8586,-3.21308 z"
       fill="#ffffff"
       style="fill:#4a4a4a;fill-opacity:1;stroke:none;stroke-width:0.978958;stroke-linecap:round;stroke-linejoin:round;stroke-dasharray:none;stroke-opacity:1"
       id="se" /><path

       d="m -1565.3244,-119.57336 6.6426,-0.45669 2.7806,0.96934 2.7806,0.96933 6.717,-4.01225 c 3.6943,-2.20671 7.3089,-4.59723 8.0324,-5.31219 0.7235,-0.71497 2.4853,-1.90493 3.9151,-2.64425 1.4299,-0.73939 3.3612,-2.18578 4.292,-3.21425 l 1.6922,-1.86992 -10.3972,-3.69405 c -5.7184,-2.03171 -17.135,-6.74788 -25.3704,-10.48038 l -14.9664,-6.78867 -13.4893,-2.33788 -13.4991,-2.33789 -7.329,-2.55211 -7.3291,-2.55211 -0.3393,1.01801 c -0.1866,0.55992 -0.9354,1.61412 -1.664,2.34268 l -1.3247,1.32467 1.9012,2.04061 c 1.0455,1.12238 1.9011,2.51474 1.9011,3.09413 0,0.96884 2.6932,5.71187 3.8918,6.85382 0.2824,0.269 1.9615,2.17589 3.7313,4.23744 l 3.218,3.74834 -0.5955,1.87627 -0.5955,1.87628 h 2.4477 c 1.3463,0 3.5823,0.43134 4.969,0.95855 l 2.5212,0.95855 1.1231,2.46515 1.1232,2.46515 h 10.5244 l 3.7221,-3.91278 3.7222,-3.91278 h 2.2592 v 19.23815 l 0.7217,0.7217 0.7217,0.7217 2.4574,-0.67291 c 1.3516,-0.3701 5.4466,-0.87841 9.1001,-1.12962 z"
       fill="#ffffff"
       style="fill:#4a4a4a;fill-opacity:1;stroke:none;stroke-width:0.978958;stroke-linecap:round;stroke-linejoin:round;stroke-dasharray:none;stroke-opacity:1"
       id="ac" /><path

       d="m -1117.6048,-133.76696 1.7596,-1.74921 3.0962,-3.52639 3.0962,-3.52639 -0.5451,-0.54513 c -0.2999,-0.29982 -2.6049,-0.46722 -5.1224,-0.37201 l -4.5771,0.17314 -3.2118,2.44979 -3.2118,2.44979 -3.22,-0.23193 -3.2199,-0.23192 -3.9128,-2.22041 -3.9127,-2.2204 -2.014,-0.0117 -2.014,-0.0117 -1.7028,1.24504 -1.7027,1.24505 7.6295,4.30816 c 4.1963,2.36949 7.9983,4.92052 8.449,5.66893 0.4508,0.74842 2.1969,2.1983 3.8802,3.22198 l 3.0605,1.86121 2.2336,-2.09832 2.2336,-2.09843 c 2.0003,-2.55729 1.9696,-2.02985 2.9289,-3.77905 z"
       fill="#ffffff"
       style="fill:#4a4a4a;fill-opacity:1;stroke:none;stroke-width:0.978958;stroke-linecap:round;stroke-linejoin:round;stroke-dasharray:none;stroke-opacity:1"
       id="al" /><path

       d="m -1233.4523,-128.15212 5.5369,-1.44216 2.3352,-2.71517 2.3351,-2.71508 v -2.2652 c 7e-4,-1.24593 -0.4297,-3.07046 -0.9564,-4.05462 l -0.9577,-1.78931 1.548,-1.28476 1.548,-1.28476 3.769,0.1503 3.769,0.15029 2.6888,1.40889 2.6889,1.40889 5.9128,-2.08903 5.9083,-2.08355 2.0512,-1.95639 c 4.5532,-4.34289 8.2491,-7.33646 9.0577,-7.33646 0.4701,0 1.9688,-0.87632 3.3304,-1.94739 l 2.4757,-1.94739 -0.9382,-3.6965 -0.9383,-3.6965 1.9229,-4.486 1.923,-4.486 -2.315,-2.83119 -2.315,-2.83118 -0.039,-2.44549 -0.039,-2.44549 -1.8135,-2.97371 -1.8135,-2.97371 0.4174,-2.89545 0.4175,-2.89546 -0.8969,-3.95719 -0.8969,-3.95719 0.8444,-2.28261 0.8444,-2.28262 -0.852,-1.09665 c -1.1131,-1.43257 -2.0606,-4.98987 -2.7021,-10.14486 l -0.5174,-4.15732 h 2.2004 l -0.6046,-0.9782 -0.6045,-0.97819 h -4.6437 l -0.6002,1.89094 -0.6002,1.89105 -4.2504,2.05763 -4.2505,2.05763 -2.4841,3.75382 -2.4841,3.75383 0.3166,6.72596 0.3166,6.72597 -1.746,4.04298 -1.746,4.04297 1.8518,4.1363 1.8519,4.13629 -1.2466,2.58087 -1.2466,2.58087 h -14.8842 l -2.7683,2.7632 -2.7683,2.76321 -3.4616,1.51062 c -1.904,0.83086 -4.7703,1.80399 -6.3696,2.1624 l -2.9079,0.65175 -0.9412,3.38905 c -0.5177,1.86395 -2.19,5.72763 -3.7162,8.58581 l -2.7748,5.19676 1.041,3.86602 1.0409,3.86602 -0.6582,3.65375 c -0.362,2.0096 -1.095,4.20399 -1.6287,4.87649 l -0.9704,1.22275 h 5.1965 l 2.02,3.42368 2.02,3.42368 h 1.812 c 0.9966,0 4.3036,-0.64899 7.349,-1.44225 z"
       fill="#ffffff"
       style="fill:#4a4a4a;fill-opacity:1;stroke:none;stroke-width:0.978958;stroke-linecap:round;stroke-linejoin:round;stroke-dasharray:none;stroke-opacity:1"
       id="pi" /><path

       d="m -1252.2043,-137.06348 c 0.8663,-2.25757 0.7261,-7.29694 -0.3029,-10.88437 l -0.8966,-3.12631 3.3199,-6.16008 3.3199,-6.16008 0.022,-2.04932 0.022,-2.04931 1.7119,-1.54272 c 0.9415,-0.84847 3.0324,-1.85886 4.6464,-2.24525 4.4298,-1.06055 8.3997,-3.26707 12.515,-6.95584 l 3.7112,-3.32664 3.6253,0.61077 c 1.9938,0.33593 4.3086,0.7945 5.1438,1.01909 l 1.5186,0.40827 1.8006,-1.31665 1.8007,-1.31665 -1.7404,-4.55702 -1.7404,-4.55702 1.8101,-4.64642 c 0.9956,-2.55553 1.67,-5.08661 1.4987,-5.62462 -0.1713,-0.53801 -0.4027,-3.39923 -0.5142,-6.35826 l -0.2027,-5.38007 3.3205,-5.05003 3.3205,-5.05003 2.1834,-0.54799 c 2.2257,-0.55861 6.457,-3.75216 6.457,-4.87337 0,-0.34039 -0.8195,-0.6189 -1.8211,-0.6189 -1.0017,0 -4.7335,-1.32056 -8.2932,-2.93458 l -6.4721,-2.93459 h -3.8402 l -0.6046,0.9782 -0.6045,0.97819 h -5.6383 l -0.6046,0.9782 c -0.3325,0.538 -1.0188,0.97819 -1.525,0.97819 h -0.9204 l -0.074,-1.71184 -0.074,-1.71184 -1.2157,3.3646 -1.2157,3.3646 -1.1554,0.38511 -1.1553,0.38513 v -3.91278 l -1.1185,-0.37283 -1.1185,-0.37282 1.1211,-2.0948 1.1211,-2.09481 -1.06,-0.65518 -1.0601,-0.65518 0.592,-2.35881 0.5921,-2.35882 -1.0243,-1.91394 c -0.5633,-1.05263 -1.9418,-2.40499 -3.0633,-3.00511 l -2.039,-1.09127 -1.0194,1.01947 -1.0195,1.01948 -3.5003,-2.88519 c -1.9251,-1.58683 -4.0602,-2.88518 -4.7446,-2.88518 h -1.2445 l -0.069,-1.22275 -0.069,-1.22274 -0.8407,1.95639 c -0.4624,1.07601 -0.8716,3.17522 -0.9094,4.66491 l -0.069,2.70852 -2.9346,5.49931 c -1.614,3.02458 -2.9346,6.22807 -2.9346,7.11872 v 1.6195 l -3.3986,5.33478 c -1.8693,2.93409 -3.4099,5.63772 -3.4237,6.00797 -0.014,0.3703 -1.325,2.09646 -2.9137,3.83599 l -2.8886,3.1627 0.4461,0.72179 0.4461,0.7218 -4.1602,2.05225 c -2.2881,1.12874 -5.2443,2.89183 -6.5693,3.91806 l -2.409,1.86581 3.5358,0.66332 3.5358,0.66332 2.786,2.91326 2.786,2.91326 -0.045,8.48975 -0.045,8.48975 -1.2611,2.29328 -1.2611,2.29328 1.9179,2.10859 c 1.0549,1.15975 2.4511,3.14099 3.1027,4.40266 l 1.1847,2.29397 3.2433,-0.60845 3.2433,-0.60845 1.6197,1.6197 1.6197,1.61969 -0.5454,1.42112 c -0.2999,0.78164 -0.5454,2.03709 -0.5454,2.78981 v 1.36869 l -2.2599,0.56721 -2.2599,0.56721 -0.9474,3.11965 -0.9474,3.11966 2.7154,4.08484 2.7153,4.08485 -0.5618,1.46416 -0.5619,1.46416 2.032,2.032 2.032,2.032 h 2.7253 l 0.5937,-1.5473 z"
       fill="#ffffff"
       style="fill:#4a4a4a;fill-opacity:1;stroke:none;stroke-width:0.978958;stroke-linecap:round;stroke-linejoin:round;stroke-dasharray:none;stroke-opacity:1"
       id="ma" /><path

       d="m -1526.0988,-141.41644 3.3803,-2.96784 2.7675,0.0708 c 1.5222,0.0389 4.4268,0.0846 6.4548,0.10151 l 3.6873,0.0307 5.9616,-3.98096 c 3.2789,-2.18958 6.524,-3.98105 7.2114,-3.98105 h 1.2497 l 0.5948,-2.36987 0.5948,-2.36987 2.7751,-2.77504 c 1.5262,-1.52628 2.9569,-3.26571 3.1794,-3.86544 l 0.401,-1.09558 5.9621,-0.41891 5.9621,-0.4189 1.4866,2.59016 1.4866,2.59016 4.7787,2.35227 4.7788,2.35226 22.2539,0.32462 22.254,0.3246 0.015,-2.77005 c 0.01,-1.52354 0.4177,-3.40666 0.9099,-4.18472 l 0.895,-1.41457 -0.9873,-1.84468 -0.9873,-1.84468 1.4313,-1.14253 1.4313,-1.14253 0.521,-2.93458 0.5211,-2.93459 -1.8866,-3.06898 -1.8868,-3.06899 12.8281,-28.72272 c 7.0553,-15.79687 13.0197,-29.03673 13.2535,-29.42214 l 0.4261,-0.69939 -5.2923,-3.51387 -5.2922,-3.51387 -4.7708,-0.45652 c -2.6239,-0.25108 -5.5411,-0.69577 -6.4826,-0.98817 l -1.7119,-0.53169 v -2.37075 l -1.9564,-1.41007 c -1.076,-0.77555 -1.9563,-1.87099 -1.9563,-2.43433 0,-0.56336 -1.0778,-2.61041 -2.3952,-4.5489 l -2.395,-3.52463 -0.6655,-5.01706 -0.6655,-5.01707 h -12.1717 l -3.0808,4.95593 c -1.6945,2.72584 -3.0809,5.35679 -3.0809,5.84667 0,0.48986 -1.0875,1.60326 -2.4167,2.47414 l -2.4167,1.58351 -2.6062,-2.05001 -2.6062,-2.05 h -4.2358 l -1.1738,1.17383 -1.1739,1.17384 v 2.65893 c 0,1.4624 -0.2672,3.3552 -0.5937,4.20623 l -0.5938,1.54731 h -3.6353 l -3.3423,-2.93458 c -1.8383,-1.61402 -3.8048,-2.93459 -4.37,-2.93459 h -1.0277 l -0.6597,-2.07846 -0.6597,-2.07847 1.1875,-0.73395 1.1876,-0.73395 -0.5792,-1.83392 c -0.3185,-1.00871 -1.0075,-5.98616 -1.5311,-11.06142 l -0.9519,-9.22711 -4.1919,-6.18151 c -2.3055,-3.39981 -4.4294,-6.07048 -4.7199,-5.9349 -0.2905,0.13567 -2.6026,1.12708 -5.1382,2.20309 l -4.6101,1.95639 v 1.56022 1.56022 l -1.7119,1.46817 c -0.9415,0.80752 -3.9128,2.49684 -6.6028,3.75412 l -4.891,2.28594 -3.6671,3.73396 c -4.033,4.10695 -4.647,4.4141 -4.647,2.32439 0,-0.77526 -0.3933,-1.65266 -0.8741,-1.94974 l -0.874,-0.54019 -3.8271,1.3503 -3.8271,1.3503 -3.7877,-2.82424 -3.7878,-2.82424 h -3.5411 l -0.6348,-3.9701 -0.6349,-3.9701 -1.7456,-2.14362 -1.7455,-2.14362 -2.9759,2.83912 -2.9759,2.83911 -1.2609,-1.04647 -1.2609,-1.04648 -1.896,1.3864 -1.896,1.38639 h -18.2121 v 1.87638 c 0,1.03199 -0.2671,2.57265 -0.5937,3.42368 l -0.5938,1.5473 h 7.6437 l 1.1738,1.17384 1.1738,1.17383 v 5.31492 l -1.2227,0.43844 -1.2228,0.43843 -1.581,-0.81042 -1.5811,-0.81042 -3.0653,1.15701 -3.0654,1.157 v 7.99107 l 3.3856,3.28145 3.3856,3.28145 -0.4458,0.72139 -0.4459,0.72139 1.4561,2.79187 1.456,2.79186 0.01,2.48618 c 0.01,2.90964 -6.7113,41.2397 -7.3383,41.86672 -0.2338,0.23384 -2.4115,-0.13101 -4.8394,-0.81076 l -4.4143,-1.23595 -2.2261,1.45858 -2.2261,1.45859 -5.3705,1.14742 -5.3706,1.14742 -3.6682,2.42162 -3.6683,2.42162 v 1.92861 h -1.3974 c -0.7686,0 -2.0892,0.69172 -2.9346,1.53713 l -1.5372,1.53714 -0.035,3.10929 -0.035,3.10928 -1.398,2.44549 -1.3979,2.44549 -0.035,2.48246 -0.035,2.48246 -2.8949,3.38671 c -1.5921,1.86267 -2.9127,3.84626 -2.9346,4.40784 l -0.04,1.02113 8.1695,2.6605 8.1695,2.66049 13.1704,2.30943 13.1704,2.30941 13.1411,6.14669 c 13.0618,6.10941 31.6211,13.5744 33.8934,13.63211 0.6538,0.0167 2.7098,-1.3052 4.569,-2.93751 z"
       fill="#ffffff"
       style="fill:#4a4a4a;fill-opacity:1;stroke:none;stroke-width:0.978958;stroke-linecap:round;stroke-linejoin:round;stroke-dasharray:none;stroke-opacity:1"
       id="am" /><path

       d="m -1120.7741,-145.00641 3.7477,-0.36641 c 2.9393,-0.36223 2.5407,-0.26183 4.7318,0.23923 l 2.6587,0.1248 c 1.3462,-0.35816 1.9371,0.0375 2.9386,-1.75899 l 0.8407,-1.95639 0.8407,-1.95639 0.069,-4.56641 c 0.038,-2.51151 1.1572,-4.082 0.8306,-4.93303 l -0.2877,-2.68427 -3.954,-0.0437 h -2.2922 l -0.7822,1.30883 -0.7823,1.30882 -4.2723,1.06183 -4.2724,1.06183 -1.3806,-0.52977 -1.3805,-0.52977 -2.9149,3.0501 c -3.3246,3.03476 -6.5734,3.09844 -8.4074,-0.0198 l -2.575,-2.68778 2.0368,-3.45215 2.0368,-3.45214 -0.9208,-0.56912 -0.9208,-0.56911 -4.1656,2.83305 c -2.291,1.55816 -5.1913,3.09051 -6.4449,3.40529 l -2.2794,0.5722 -3.809,-1.34384 -3.809,-1.34384 -0.5722,0.92584 -0.5722,0.92585 h -3.6864 l -1.2782,-1.79 c -0.703,-0.98445 -2.3787,-2.48872 -3.7237,-3.34278 l -2.4455,-1.55279 -5.6136,-0.0438 -5.6135,-0.0438 0.2334,4.52494 0.2335,4.52493 -4.0295,3.10811 -4.0295,3.10812 1.8286,1.14194 1.8285,1.14195 v 1.49341 c 0,0.82138 0.6944,2.55318 1.5431,3.84841 l 1.5431,2.355 4.8368,-3.61218 c 2.6602,-1.98671 6.1499,-4.56024 7.7548,-5.71901 l 2.9181,-2.10684 5.5541,2.84048 c 3.0547,1.56218 6.0318,2.84039 6.6158,2.84039 h 1.0617 l 1.5047,2.47982 1.5047,2.47982 2.2952,-1.99072 c 1.2623,-1.0949 2.4734,-1.99073 2.691,-1.99073 0.2176,0 2.4612,1.16738 4.9859,2.59408 2.5245,1.42679 5.9106,2.90582 7.5246,3.28693 l 2.9346,0.69288 1.9564,-1.34443 c 1.076,-0.73947 3.387,-2.08003 5.1355,-2.97899 z"
       fill="#ffffff"
       style="fill:#4a4a4a;fill-opacity:1;stroke:none;stroke-width:0.978958;stroke-linecap:round;stroke-linejoin:round;stroke-dasharray:none;stroke-opacity:1"
       id="pe" /><path
       d="m -1308.9396,-144.73252 0.5936,-2.36488 4.9015,-5.36305 4.9015,-5.36305 1.3273,-3.76585 1.3272,-3.76586 -0.8428,-2.2743 -0.8427,-2.2743 1.1116,-4.57306 1.1116,-4.57306 1.481,-1.71184 c 0.8146,-0.94151 1.9753,-1.71184 2.5793,-1.71184 1.5804,0 4.3282,-3.47435 7.0787,-8.95048 l 2.3886,-4.75549 -0.6011,-0.97262 -0.6011,-0.97261 h -3.8588 l -0.6086,-1.58585 -0.6085,-1.58585 3.8184,-3.27402 c 2.1,-1.80066 5.4789,-4.118 7.5086,-5.1496 l 3.6902,-1.87559 3.2087,-4.26914 c 4.6395,-6.1728 8.6687,-13.33377 10.6574,-18.94175 0.9539,-2.69004 2.3489,-6.21154 3.1001,-7.82556 1.6115,-3.46271 3.5436,-11.41749 2.9905,-12.31253 -0.2125,-0.34387 -2.4886,-1.1936 -5.058,-1.88841 -2.5694,-0.69475 -5.1118,-1.51307 -5.6499,-1.81846 -1.7876,-1.01488 -3.8636,-1.37241 -9.1018,-1.56766 l -5.189,-0.1934 -1.9241,2.44617 c -1.0583,1.3454 -2.1824,3.47513 -2.498,4.7327 l -0.5739,2.28653 h -0.8395 c -0.4618,0 -2.3179,1.47824 -4.1247,3.28507 -1.8068,1.80682 -3.6923,3.45752 -4.1899,3.66823 -0.4976,0.21072 -2.1906,2.35823 -3.7621,4.77222 l -2.8573,4.38915 -0.4085,-1.22548 -0.4085,-1.22548 1.5267,-4.48062 1.5266,-4.48062 -1.6845,0.7687 c -0.9489,0.42063 -3.4628,0.79234 -5.6149,0.82169 l -3.9127,0.0592 -1.3964,0.89867 -1.3964,0.89867 -2.6165,-3.13413 -2.6164,-3.13414 -1.1932,-3.98252 -1.1932,-3.98252 -2.1305,1.94621 c -4.5391,4.14667 -10.63,6.20645 -11.9652,4.04621 l -0.6573,-1.0634 1.0887,-1.08863 c 0.5967,-0.60648 1.0858,-1.44773 1.0858,-1.87814 v -0.78255 h -3.529 l -3.0588,-3.17913 -3.0588,-3.17913 -0.6824,-2.76829 -0.6825,-2.7683 -2.2369,-1.01918 -2.237,-1.01918 -0.5586,-2.08169 c -0.3073,-1.14498 -0.5647,-3.72868 -0.572,-5.74161 l -0.013,-3.65992 -2.027,-1.23105 -2.027,-1.23106 -1.3468,-3.17913 -1.3468,-3.17914 h -1.2901 c -0.7096,0 -2.8557,-1.06378 -4.769,-2.3639 l -3.4789,-2.36391 -2.862,-0.32611 -2.8661,-0.3228 -0.2986,-3.5843 -0.2986,-3.5843 -1.3403,-0.51432 -1.3403,-0.51431 -3.6423,1.00568 -3.6423,1.00568 -2.3233,-0.44411 -2.3232,-0.4441 -0.4727,0.76492 -0.4728,0.76493 0.9322,2.45184 0.9322,2.45175 -1.2143,1.00783 -1.2144,1.00784 -8.2159,-0.82826 -8.216,-0.82825 -1.2768,0.48997 c -0.7023,0.26947 -1.2769,0.88306 -1.2769,1.36351 v 0.87353 l -1.2227,0.0332 c -0.6725,0.0183 -2.9752,0.86172 -5.117,1.87441 l -3.8944,1.84116 -0.8245,-0.50957 -0.8245,-0.50957 -2.1286,1.91315 c -1.1707,1.05224 -2.8989,2.18499 -3.8404,2.51729 l -1.7118,0.60416 0.01,1.74255 c 0,0.9584 0.626,5.86584 1.3828,10.90492 l 1.3758,9.16274 4.1536,6.12507 4.1536,6.12506 6.0304,0.99922 6.0304,0.99923 5.5516,3.55143 5.5517,3.55143 v 1.50241 c 0,0.82634 -5.7743,14.44598 -12.8319,30.26632 l -12.832,28.76381 0.5982,1.25062 c 0.3291,0.68783 0.9923,1.9109 1.474,2.71791 0.4816,0.80701 1.9882,3.66823 3.3478,6.35827 l 2.472,4.89097 0.681,3.91278 c 0.3746,2.15203 1.3021,4.9032 2.0611,6.11371 l 1.38,2.20094 h 2.3471 l 3.4504,3.85477 3.4503,3.85477 34.7259,1.88371 c 19.0993,1.03601 38.3101,1.9425 42.6904,2.0144 l 7.9641,0.13066 0.5935,-2.36488 z"
       fill="#ffffff"
       style="fill:#4a4a4a;fill-opacity:1;stroke:none;stroke-width:0.978958;stroke-linecap:round;stroke-linejoin:round;stroke-dasharray:none;stroke-opacity:1"
       id="pa" /><path
       d="m -1127.3769,-158.5055 2.2974,-2.44548 h 7.3572 l 2.5091,-0.95399 2.5092,-0.95398 c -0.276,-3.86241 10.182,-0.0452 9.4826,-2.47914 -0.6415,-1.82913 1.5723,-4.19802 -0.52,-5.3787 l -0.8309,-1.97576 -0.3061,-2.67536 -3.6682,-0.60631 c -2.0176,-0.33348 -5.1278,-0.61117 -6.9117,-0.61709 l -3.2434,-0.0108 -1.8921,-1.01262 -1.8921,-1.01263 v 3.98164 l -2.036,2.03601 -2.036,2.03602 -1.6322,-1.41692 -1.6323,-1.41691 -3.086,0.0332 -3.086,0.0331 -1.4968,-1.49683 -1.4968,-1.49683 2.4171,-3.55711 c 1.3294,-1.95649 2.1937,-3.5572 1.9207,-3.5572 -0.2731,0 -2.9849,1.10047 -6.0262,2.44548 l -5.5296,2.44549 h -5.3977 l -0.5014,2.62273 -0.5014,2.62284 1.0335,2.26814 1.0335,2.26823 -1.0702,2.34884 -1.0701,2.34884 3.3314,0.62497 3.3314,0.62498 2.7886,-1.44205 c 1.5337,-0.7931 3.3606,-2.13129 4.0598,-2.97381 l 1.2712,-1.53176 h 4.4119 l 1.3021,1.56893 1.302,1.56893 -1.6516,2.87784 -1.6517,2.87785 1.1938,1.91149 c 1.5807,2.53118 2.8477,2.41067 5.6141,-0.53398 z"
       fill="#ffffff"
       style="fill:#4a4a4a;fill-opacity:1;stroke:none;stroke-width:0.978958;stroke-linecap:round;stroke-linejoin:round;stroke-dasharray:none;stroke-opacity:1"
       id="pb" /><path
       d="m -1155.6174,-165.49959 1.3401,-1.6238 0.065,-5.96347 c 0.036,-3.27988 0.3918,-7.35279 0.7913,-9.05094 l 0.7263,-3.08757 2.3021,-0.57778 2.3021,-0.57778 3.5504,-6.34858 3.5503,-6.34858 1.8156,-0.97166 1.8155,-0.97166 -7.9701,-7.64831 c -10.32,-9.90911 -13.7632,-12.47198 -24.1125,-17.98899 l -3.4237,-1.82678 -5.8692,0.63671 -5.8692,0.63673 -1.1406,0.90237 -1.1407,0.90236 0.2819,4.18071 0.2818,4.1807 1.0998,2.05489 1.0998,2.0549 -0.1217,4.71744 c -0.067,2.59456 0.085,7.44963 0.338,10.78948 l 0.4598,6.07175 0.9951,1.26471 c 0.5473,0.69559 1.2809,2.76858 1.6301,4.60671 l 0.6348,3.342 2.3817,3.12259 2.3818,3.1226 -1.4683,2.09627 -1.4684,2.09627 0.6175,0.99903 0.6174,0.99903 5.1032,-0.16677 5.1033,-0.16676 1.9279,1.0318 c 1.0603,0.5675 2.7616,1.95297 3.7804,3.07877 2.2334,2.46799 3.7953,2.58801 5.5869,0.42939 z"
       fill="#ffffff"
       style="fill:#4a4a4a;fill-opacity:1;stroke:none;stroke-width:0.978958;stroke-linecap:round;stroke-linejoin:round;stroke-dasharray:none;stroke-opacity:1"
       id="ce" /><path
       d="m -1125.4205,-177.0325 v -2.26795 l 1.4048,-1.16581 1.4047,-1.16581 1.7744,0.92516 1.7743,0.92515 6.7412,0.70269 6.7411,0.70268 -0.651,-2.29357 c -0.358,-1.26148 -0.9169,-3.51123 -1.2419,-4.99935 l -0.5909,-2.70569 -2.0098,-2.88558 c -2.0196,-1.70509 -3.6428,-2.12894 -5.2558,-2.39569 l -5.5421,-0.55659 h -5.2328 l -4.2559,-2.85838 -4.256,-2.85838 -2.7385,1.41623 -2.7386,1.41613 v 0.93408 c 0,0.51375 -1.5461,3.3511 -3.4359,6.30525 l -3.4359,5.37116 -2.1887,1.19066 -2.1887,1.19066 2.4455,0.63477 2.4455,0.63476 5.5967,-2.77572 c 3.0782,-1.52667 6.2225,-2.77573 6.9872,-2.77573 h 1.3905 l 0.5094,1.32741 0.5094,1.32741 -1.8656,2.82992 c -1.026,1.5564 -1.8684,3.43512 -1.872,4.17493 l -0.01,1.34502 2.8492,-0.56986 2.8493,-0.56984 1.1743,1.41495 1.1744,1.41506 0.8673,-0.53606 0.8674,-0.53605 v -2.26794 z"
       fill="#ffffff"
       style="fill:#4a4a4a;fill-opacity:1;stroke:none;stroke-width:0.978958;stroke-linecap:round;stroke-linejoin:round;stroke-dasharray:none;stroke-opacity:1"
       id="rn" /><path
       d="m -1301.4955,-249.16456 c 0,-0.4428 0.3301,-0.71158 0.7336,-0.59728 0.4035,0.1143 1.7241,-0.34137 2.9346,-1.01263 l 2.2009,-1.22039 v 1.43834 l 1.0975,-1.09744 1.0973,-1.09734 1.1036,0.39733 1.1035,0.39734 2.69,-3.80919 2.6901,-3.80919 v -1.61989 c 0,-0.89092 0.4261,-2.41604 0.9469,-3.38915 l 0.9469,-1.76926 -5.8504,-0.66189 -5.8504,-0.6619 -0.8711,0.53838 -0.8712,0.53839 -5.8432,-0.79912 -5.8433,-0.7991 -2.1811,0.80686 -2.1812,0.80687 0.612,2.43845 0.612,2.43844 h -1.9936 v 3.70344 l 1.4673,0.56305 c 0.807,0.30969 1.4673,1.01703 1.4673,1.57196 v 1.00891 h -2.7514 l 0.5709,2.18333 c 0.314,1.20083 0.9901,2.63144 1.5023,3.17913 l 0.9314,0.9958 4.7644,0.0714 4.7644,0.0714 v -0.80509 z"
       fill="#ffffff"
       style="display:inline;fill:#4a4a4a;fill-opacity:1;stroke:none;stroke-width:0.978958;stroke-linecap:round;stroke-linejoin:round;stroke-dasharray:none;stroke-opacity:1"
       id="pa2" /><path
       d="m -1462.8976,-257.72376 v -3.84176 l 2.5774,-2.02741 2.5775,-2.02741 h 3.0527 l 2.633,2.52257 2.633,2.52257 1.1026,-1.29983 c 1.9129,-2.25522 5.966,-8.69106 5.966,-9.47342 0,-0.41267 0.8975,-1.7137 1.9945,-2.89115 l 1.9945,-2.14088 h 11.6621 v -8.66406 l -1.5372,-1.53713 c -0.8454,-0.84545 -1.8936,-1.53714 -2.3293,-1.53714 -0.4358,0 -2.1437,-1.38219 -3.7953,-3.07153 l -3.0031,-3.07153 -0.6456,-3.04219 -0.6456,-3.04218 -1.4883,-1.68787 -1.4883,-1.68788 0.696,-4.67039 c 0.3829,-2.56874 0.7649,-5.77086 0.8491,-7.11587 l 0.1531,-2.44549 1.8453,-1.52373 1.8452,-1.52374 -0.6819,-3.10459 -0.6818,-3.10459 -2.6163,-1.27449 -2.6118,-1.27459 0.3106,-4.12358 0.3105,-4.12358 h -5.9398 l 0.5037,1.31254 0.5037,1.31254 -3.9609,3.57843 -3.9609,3.57844 h -3.6434 l -2.3483,1.84712 -2.3482,1.84713 -3.7258,1.02876 -3.7257,1.02877 -1.4068,-0.53984 -1.4067,-0.53982 -1.3003,1.07914 -1.3003,1.07914 -0.7881,-0.72515 -0.7881,-0.72516 0.5274,2.14538 0.5274,2.14538 -1.7272,1.56315 -1.7273,1.56316 -2.813,-2.33896 -2.8075,-2.33887 -5.0961,0.24542 -5.0961,0.24542 -1.1374,-1.37045 -1.1374,-1.37045 -2.5703,0.004 -2.5704,0.004 3.1792,1.93839 3.1791,1.93839 v 8.71708 l 0.9782,0.60455 0.9782,0.60456 v 3.65766 l 1.608,1.60796 1.6079,1.60796 2.2932,-0.57556 2.2932,-0.57556 3.5113,3.88656 c 1.9312,2.13765 4.8608,5.74953 6.5103,8.02657 l 2.999,4.14001 0.9892,8.37394 c 0.544,4.60563 1.0078,10.68481 1.0306,13.50984 0.023,2.82454 0.2849,5.1366 0.5823,5.13787 0.2975,9.8e-4 2.0815,1.32076 3.9645,2.93223 1.8831,1.61148 3.7539,2.93107 4.1574,2.93234 l 0.7336,0.002 v -3.84176 z"
       fill="#ffffff"
       style="fill:#4a4a4a;fill-opacity:1;stroke:none;stroke-width:0.978958;stroke-linecap:round;stroke-linejoin:round;stroke-dasharray:none;stroke-opacity:1"
       id="rr" /><path
       d="m -1328.2296,-260.80508 0.602,-3.0098 5.6201,-5.5494 c 3.0911,-3.05216 6.3467,-6.20967 7.2348,-7.01668 0.8881,-0.80702 2.7383,-2.89791 4.1115,-4.64643 l 2.4967,-3.17913 h 2.672 l 0.6443,-3.43444 0.6443,-3.43444 -1.2088,-1.45653 -1.2089,-1.45653 h -3.5723 l -2.2514,-2.20094 -2.2694,-2.20094 -2.6317,-7.82556 c -1.4474,-4.30405 -2.9095,-9.36621 -3.2491,-11.24923 -0.3395,-1.88303 -1.0601,-4.85429 -1.6014,-6.60281 l -0.9841,-3.17914 h -2.1307 l 0.6226,0.62268 0.6227,0.62268 -4.1879,4.65797 -4.188,4.65797 -3.781,7.44924 -3.781,7.44924 -2.9297,1.85495 -2.9296,1.85495 -2.4067,-0.91504 -2.4068,-0.91504 -1.7449,0.55379 -1.7449,0.5538 -0.6585,-1.06545 -0.6585,-1.06545 -1.2346,1.02456 -1.2346,1.02456 -2.3466,0.0553 c -1.2906,0.0304 -3.5571,-0.24053 -5.0366,-0.60204 l -2.69,-0.65729 v 2.18451 l 2.2009,0.002 2.201,0.002 3.4236,2.93008 3.4237,2.92999 2.0895,0.002 2.0896,0.002 1.6807,3.54194 1.6807,3.54195 1.74,0.45502 1.74,0.45504 0.5927,3.58401 c 0.326,1.97126 0.5975,4.79452 0.6034,6.27404 l 0.011,2.69013 h 0.9401 c 0.5171,0 1.8377,0.96338 2.9346,2.14088 l 1.9945,2.14087 v 3.39375 l 2.5325,3.00961 2.5324,3.00961 h 4.766 l 0.6019,-3.0098 z"
       fill="#ffffff"
       style="fill:#4a4a4a;fill-opacity:1;stroke:none;stroke-width:0.978958;stroke-linecap:round;stroke-linejoin:round;stroke-dasharray:none;stroke-opacity:1"
       id="ap"/></g></svg>
